# xmcd
#
# Track frame offsets:
#	150
#	2387
#	13249
#	22283
#	33329
#
# Disc length: 622 seconds
#
# Revision: 1
# Processed by: cddbd v1.5.2PL0 Copyright (c) Steve Scherf et al.
# Submitted via: audiograbber 1.83.01
#
DISCID=32026c05
DTITLE=Defloration - Defloration
DYEAR=2003
DGENRE=Death
TTITLE0=13
TTITLE1=Endless Torture 
TTITLE2=Dance of Decay 
TTITLE3=Genocide 
TTITLE4=Insane 
EXTD=
EXTT0=
EXTT1=
EXTT2=
EXTT3=
EXTT4=
PLAYORDER=
